<svg width="16" height="18" viewBox="0 0 16 18" fill="none" xmlns="http://www.w3.org/2000/svg">
<g clip-path="url(#clip0_625_457)">
<path d="M5.0625 5.0625V6.75H10.6875V5.0625C10.6875 3.50859 9.42891 2.25 7.875 2.25C6.32109 2.25 5.0625 3.50859 5.0625 5.0625ZM2.8125 6.75V5.0625C2.8125 2.26758 5.08008 0 7.875 0C10.6699 0 12.9375 2.26758 12.9375 5.0625V6.75H13.5C14.741 6.75 15.75 7.75898 15.75 9V15.75C15.75 16.991 14.741 18 13.5 18H2.25C1.00898 18 0 16.991 0 15.75V9C0 7.75898 1.00898 6.75 2.25 6.75H2.8125Z" fill="#A3A3A3"/>
</g>
<defs>
<clipPath id="clip0_625_457">
<path d="M0 0H15.75V18H0V0Z" fill="white"/>
</clipPath>
</defs>
</svg>
