<svg width="1262" height="343" viewBox="0 0 1262 343" fill="none" xmlns="http://www.w3.org/2000/svg">
<path d="M70.3175 75.6572C69.0898 80.3329 68.1404 88.49 67.7851 94.843C67.4731 100.422 67.0951 105.498 66.6389 112.201C66.303 117.137 66.29 121.545 66.3389 127.471C66.444 140.233 66.9601 145.001 67.8689 151.069C68.2124 153.362 69.7511 154.989 71.4709 156.444C76.8988 161.033 93.9443 161.167 102.89 162.095C115.201 163.371 125.62 162.86 133.964 163.428C139.006 164.146 149.091 165.205 157.828 166.18C159.27 166.456 160.572 166.798 164.314 167.178" stroke="#01274F" stroke-width="20" stroke-linecap="round"/>
<path d="M113.978 170.823C113.586 172.316 112.584 177.647 112.522 182.469C112.472 186.376 111.855 191.113 111.681 195.996C111.525 200.359 111.508 204.679 111.131 208.799C110.081 213.945 108.496 221.52 107.889 228.018C107.875 229.227 107.817 230.206 107.165 233.467" stroke="#01274F" stroke-width="20" stroke-linecap="round"/>
<path d="M45 234.006C50.732 234.307 62.6766 235.853 73.7877 237.753C86.6069 239.944 95.6149 240.672 107.788 242.368C119.56 244.009 133.369 245.177 144.812 245.869C148.805 246.014 155.745 246.234 164.799 246.507C168.355 246.529 169.803 246.312 172.421 246.386" stroke="#01274F" stroke-width="20" stroke-linecap="round"/>
<path d="M217.794 131.801C222.023 131.417 237.848 131.219 259.101 131.315C267.865 131.355 270.202 132.378 272.333 133.828C274.546 135.334 275.065 138.196 275.356 140.52C276.115 146.575 269.654 154.679 267.211 159.161C265.144 162.952 262.653 166.34 260.129 170.032C255.75 176.436 249.653 181.681 245.378 185.854C240.805 190.318 236.06 196.428 232.466 200.03C229.257 203.627 226.927 205.765 225.378 207.023C224.597 207.704 223.828 208.473 223.036 209.265" stroke="#01274F" stroke-width="20" stroke-linecap="round"/>
<path d="M261.477 170.242C266.131 181.105 268.839 184.593 271.562 188.283C275.39 193.47 282.037 197.791 287.276 203.03C293.307 209.061 297.565 212.935 301.65 216.243C302.626 217.023 303.587 217.792 305.16 219.167" stroke="#01274F" stroke-width="20" stroke-linecap="round"/>
<path d="M345.347 96.2729C345.347 96.6573 344.771 98.5852 343.224 105.627C340.148 119.634 339.523 133.502 339.715 141.644C339.854 147.507 340.688 151.01 341.745 158.523C346.127 189.671 348.644 194.867 349.034 199.541C349.466 204.708 350.589 208.857 351.652 212.745C352.693 216.553 353.105 220.506 354.177 225.165C354.853 228.066 355.441 230.611 355.828 232.548C356.023 233.523 356.216 234.484 356.414 235.474" stroke="#01274F" stroke-width="20" stroke-linecap="round"/>
<path d="M404.372 122.5C407.846 122.65 413.259 123.267 431.628 124.157C441.561 124.638 450.712 124.681 452.317 125.715C454.313 127 453.584 130.43 453.192 132.836C452.359 137.952 448.867 140.908 446.163 145.164C441.61 151.486 436.085 158.787 428.132 167.855C424.434 171.911 421.422 174.86 416.547 178.405" stroke="#01274F" stroke-width="20" stroke-linecap="round"/>
<path d="M508.691 96.0792C508.584 98.5813 507.566 104.367 506.903 108.326C504.847 120.612 505.767 141.402 506.659 147.844C508.26 159.402 509.253 164.486 510.254 170.451C511.889 175.488 512.847 180.182 514.109 184.809C514.357 185.895 514.508 186.864 514.688 187.28" stroke="#01274F" stroke-width="20" stroke-linecap="round"/>
<path d="M509.653 141.592C511.412 141.091 516.89 139.769 522.35 139.613C527.443 138.665 533.094 138.325 537.55 138.225C540.269 138.242 543.917 138.399 547.676 138.56" stroke="#01274F" stroke-width="20" stroke-linecap="round"/>
<path d="M429.247 222.089C436.493 220.459 441.961 219.533 454.282 219.184C464.14 218.906 471.409 217.293 474.716 217.047C486.681 216.158 505.332 218.929 509.022 221.711C513.014 224.72 510.914 234.478 511.25 240.167C511.515 244.662 511.778 250.477 513.351 256.767C514.419 261.486 514.604 266.151 516.138 271.076C516.481 272.266 516.632 273.234 517.876 276.027" stroke="#01274F" stroke-width="20" stroke-linecap="round"/>
<path d="M658.446 71.4248C662.427 71.8671 670.007 74.0855 679.822 77.5437C684.108 79.0114 686.983 79.896 689.017 80.4624C691.051 81.0287 692.157 81.2498 693.966 82.1479" stroke="#01274F" stroke-width="20" stroke-linecap="round"/>
<path d="M654.425 113.647C661.335 111.643 668.017 109.854 680.405 109.515C686.604 109.346 694.583 109.84 702.535 111.519C708.746 112.83 713.838 112.528 714.96 113.637C719.91 118.528 701.164 123.901 689.667 130.703C669.853 141.561 659.418 148.45 646.694 156.372C641.711 159.649 639.721 161.418 637 163.241" stroke="#01274F" stroke-width="20" stroke-linecap="round"/>
<path d="M684.583 139.785C691.942 143.129 696.848 146.245 701.211 150.27C705.229 153.976 713.348 160.078 720.084 165.014C721.431 165.915 722.758 166.579 722.999 166.478C723.24 166.378 722.356 165.493 721.444 164.582" stroke="#01274F" stroke-width="20" stroke-linecap="round"/>
<path d="M761.656 57.3511C761.656 71.1704 762.54 82.3225 763.328 91.494C764.408 104.076 766.334 116.931 767.239 124.236C768.143 131.538 768.8 135.965 769.249 140.991C770.589 148.705 771.038 153.396 771.26 156.295C771.481 157.645 771.923 158.751 772.379 159.22" stroke="#01274F" stroke-width="20" stroke-linecap="round"/>
<path d="M776.4 114.987C773.304 114.987 776.353 114.987 783.943 115.208C787.994 115.872 790.682 116.549 793.58 116.995C794.931 117.219 796.037 117.44 799.187 116.998" stroke="#01274F" stroke-width="20" stroke-linecap="round"/>
<path d="M806.559 58.021C806.559 73.3617 807.001 91.276 807.339 101.212C807.528 106.736 808.341 112.937 808.68 118.432C809.239 131.87 809.682 152.726 810.352 155.625C810.58 156.975 810.58 158.081 810.58 159.22" stroke="#01274F" stroke-width="20" stroke-linecap="round"/>
<path d="M699.998 202.783C701.995 202.783 714.421 201.013 724.768 199.991C728.332 199.639 744.975 199.432 767.426 202.97C775.737 204.28 775.06 213.586 774.838 217.785C774.617 221.984 774.175 223.089 773.947 225.76C773.719 228.431 773.719 232.633 773.719 236.962" stroke="#01274F" stroke-width="20" stroke-linecap="round"/>
<path d="M701.338 240.983C705.112 240.32 712.263 238.088 719.517 236.299C725.529 234.816 733.025 232.727 742.629 232.492C751.362 234.275 757.608 236.064 763.308 238.293C764.987 238.966 766.977 239.63 769.698 240.983" stroke="#01274F" stroke-width="20" stroke-linecap="round"/>
<path d="M702.009 245.675C702.009 255.862 702.451 276.035 703.456 281.175C703.991 283.908 705.574 286.101 707.468 287.441C711.247 290.117 724.031 288.567 734.041 287.79C740.639 286.335 756.616 285.886 767.771 284.774C769.893 284.546 772.768 284.546 775.73 284.546" stroke="#01274F" stroke-width="20" stroke-linecap="round"/>
<path d="M881.079 56.6807C884.416 57.572 892.861 60.2327 900.38 62.1494C910.35 64.6907 925.057 68.9586 932.536 70.5235C935.342 71.1105 939.305 72.2961 941.909 73.3081C954.056 78.0295 946.979 105.591 946.429 108.044C944.893 114.901 928.729 109.626 920.643 109.07C914.827 108.669 896.212 108.285 884.664 108.282C879.308 108.281 885.542 122.547 885.881 136.048C886.043 142.528 888.665 148.242 890.455 154.948C891.624 159.329 892.244 163.449 893.467 166.126C895.628 170.858 905.165 169.045 914.886 169.162C926.169 169.299 940.015 167.718 947.511 166.706C954.565 166.15 957.916 165.252 960.145 165.141C961.267 165.031 962.373 164.81 964.853 163.911" stroke="#01274F" stroke-width="20" stroke-linecap="round"/>
<path d="M993.001 54C993.001 54.4423 993.001 54.8847 993.001 64.9543C993.001 75.024 993.001 94.7075 993.112 105.511C993.261 120.135 994.784 125.456 996.456 131.608C998.052 137.483 999.917 143.109 1001.6 151.258C1002.8 157.125 1002.83 162.544 1004.28 168.358C1004.62 169.709 1004.84 170.815 1005.06 171.937C1005.29 173.06 1005.51 174.166 1005.73 175.305" stroke="#01274F" stroke-width="20" stroke-linecap="round"/>
<path d="M907.887 206.804C909.442 208.352 912.565 214.591 917.467 222.516C925.238 235.079 929.547 239.616 931.558 245.095C934.935 254.299 944.278 264.186 947.639 268.227C952.354 273.897 967.936 265.352 976.977 261.887C999.019 256.626 1003.93 255.285 1007.83 254.394C1009.52 253.945 1010.63 253.503 1014.45 252.377" stroke="#01274F" stroke-width="20" stroke-linecap="round"/>
<path d="M1081.97 95.5518C1088.41 97.1066 1099.12 100.23 1113.08 103.36C1121.62 105.274 1129.32 107.836 1131.1 108.724C1131.96 109.148 1132 110.497 1131.79 111.841C1130.52 119.649 1124.87 126.81 1118.96 137.174C1115.7 142.888 1113.48 148.47 1110.69 154.505C1107.97 160.377 1103.44 167.651 1099.18 175.06C1096.57 179.602 1094.71 184.446 1090.36 191.027C1088.68 194.043 1087.34 196.295 1086 198.078C1085.32 198.976 1084.66 199.861 1084.65 200.102" stroke="#01274F" stroke-width="20" stroke-linecap="round"/>
<path d="M1117.49 155.199C1118.59 156.526 1134.56 169.836 1144.39 178.529C1150.31 183.106 1166.29 194.218 1176.44 201.315C1177.79 202.327 1179.12 203.212 1181.16 204.123" stroke="#01274F" stroke-width="20" stroke-linecap="round"/>
<path d="M1187.19 69.4141C1188.74 73.1805 1191.87 83.8902 1193.22 90.9473C1194.97 100.104 1196.11 111.382 1198.01 122.644C1200.12 135.123 1202.59 146.178 1204.38 154.619C1205.58 160.218 1207.49 175.398 1210.52 187.894C1212.76 197.112 1213.33 201.643 1213.99 206.338C1214.91 212.812 1215.34 220.395 1215.89 226.216C1216.01 230.435 1216.23 234.268 1216.56 237.384C1216.68 239.174 1216.68 241.385 1216.68 243.664" stroke="#01274F" stroke-width="20" stroke-linecap="round"/>
</svg>
