<svg width="43" height="32" viewBox="0 0 43 32" fill="none" xmlns="http://www.w3.org/2000/svg">
<path d="M10.7444 9.16881C10.2244 9.51777 9.89155 9.8502 9.78223 10.2887C9.61216 10.9709 9.75892 11.8085 9.96574 12.545C10.1613 13.2416 10.9158 13.7046 11.6364 14.0899C11.9726 14.2697 12.3136 14.2789 12.7302 13.9306C13.8206 13.019 14.1586 11.7715 14.0827 11.1234C13.9956 10.3793 13.4823 9.85351 12.9807 9.55643C12.413 9.22022 11.7319 9.30099 11.2296 9.38823C10.7098 9.47851 10.4391 10.0042 10.2642 10.3449C10.1131 10.639 10.1535 10.9083 10.2185 11.0623C10.306 11.2696 10.7208 11.2176 11.1242 11.174C11.6493 11.1172 12.1212 10.7352 12.4384 10.2738C12.7389 9.83663 12.6485 9.36841 12.6051 9.11561C12.5833 8.98799 12.4751 8.88462 12.3222 8.81754C11.9737 8.66476 11.4259 8.81523 10.8038 9.11131C9.42754 9.76637 9.16999 11.1251 9.13552 11.5801C9.13063 11.6447 9.23302 11.6578 9.3315 11.6581C9.56098 11.6589 9.99726 11.3306 10.5435 10.7375C11.0583 10.1784 11.2467 9.34924 11.4217 8.55781C11.5748 7.86497 11.4456 7.34207 11.2602 7.06681C11.1812 6.94962 11.053 6.94421 10.8672 6.97659C10.4126 7.05583 9.80685 7.51325 9.1841 8.1725C8.62818 8.761 8.42544 9.53958 8.3158 10.2431C8.22085 10.8523 8.5108 11.326 8.83777 11.6231C9.00968 11.7793 9.29473 11.8111 9.55867 11.8121C10.0865 11.8141 10.6322 11.3095 11.1023 10.6169C11.8418 9.52725 11.38 8.22438 11.1728 7.74027C11.0807 7.52499 10.9007 7.43063 10.7142 7.37446C10.5278 7.31828 10.3111 7.31828 10.0478 7.43823C9.43745 7.71632 8.95201 8.41604 8.59123 9.16319C8.25411 9.86133 8.31514 10.6195 8.39097 11.246C8.42809 11.5527 8.61847 11.8071 8.8266 11.9856C9.23573 12.3364 9.84428 12.3193 10.4119 12.1554C11.08 11.9625 11.508 10.9585 11.8908 9.93645C12.2325 9.02398 12.0365 8.09352 11.8294 7.40023C11.7424 7.10899 11.5573 6.99047 11.4141 6.91215C11.271 6.83384 11.141 6.81203 10.9332 6.89894C10.4118 7.11698 10.0019 7.6679 9.72872 8.21744C9.23707 9.20665 9.40898 10.2448 9.59446 10.6C9.68576 10.7749 10.5626 10.3399 11.6994 9.76759C12.7349 9.24629 13.4324 9.30099 14.0469 9.45432C14.3971 9.54168 14.6825 9.71935 14.8361 9.71968C15.1748 9.7204 14.4212 7.94878 14.2797 7.06581C14.2298 6.75445 13.5059 6.6587 13.0001 6.45977C12.5719 6.29141 11.8422 6.12865 11.446 6.0738C11.054 6.01954 10.5291 5.99647 10.0895 5.94162C9.76581 5.90122 9.32428 5.86495 8.89817 5.75491C8.58379 5.67373 7.49312 5.66602 5.97285 5.70964C4.85398 5.74174 4.48606 6.58996 4.31076 6.86556C4.10984 7.18142 4.0698 7.51523 3.98215 7.83478C3.90555 8.11402 3.80717 8.46165 3.77401 8.93584C3.76224 9.10419 3.71919 9.95397 3.73002 11.1872C3.73773 12.0639 4.09081 12.7575 4.27629 13.1438C4.51225 13.6353 5.05202 13.7938 5.75159 14.0803C6.47871 14.3781 6.80373 14.6094 7.26234 14.7967C7.66107 14.9596 8.09453 14.9848 8.38966 14.9521C8.51496 14.9382 8.57645 14.8539 8.62077 14.7657C8.91867 14.1726 8.57908 12.7007 8.39229 11.9466C8.24015 11.3324 8.0315 10.7563 7.79087 10.3819C7.57133 10.0403 7.26595 9.63409 7.06832 9.26927C6.83126 8.83164 6.8707 7.13455 6.97969 6.12997C6.9988 5.95379 7.02368 5.79886 7.14317 5.69973C7.54267 5.36829 7.96322 5.55631 8.42282 5.52293C9.12108 5.47223 10.0866 5.55499 10.5238 5.72054C10.9882 5.89635 11.6177 5.974 12.1104 6.02919C12.5544 6.07891 12.7351 6.30445 12.8339 6.38145C13.0407 6.54255 11.9735 6.32825 11.49 6.19507C11.2021 6.1158 10.8994 6.06256 10.6788 5.9968C10.4681 5.934 11.1594 5.90857 11.2257 5.86462C11.6011 5.61582 10.3951 5.66602 10.2963 5.68783C10.0768 5.73629 10.4818 6.21457 10.5471 6.84111C10.5779 7.1364 10.5908 7.61701 10.7753 8.63844C10.9598 9.65986 11.3064 11.2084 11.4959 12.1042C11.6853 13.0001 11.707 13.1964 11.8156 13.6682C11.9243 14.1401 12.1193 14.8817 12.3389 15.5472C12.5585 16.2127 12.7968 16.7798 13.1255 17.41C13.8198 18.7415 14.3982 19.5219 14.4215 19.7089C14.4358 19.8238 14.0548 19.8305 13.3681 19.8639C12.6813 19.8973 11.598 19.9191 11.0399 19.6359C9.47866 18.8436 10.5908 17.3878 10.6673 17.0798C10.7004 16.9463 10.7221 16.8591 10.5708 16.836C9.29695 16.6413 8.07746 17.5174 7.54007 17.7814C7.04285 18.0257 6.31163 17.9688 5.97285 18.4753C5.76524 18.7858 6.1708 19.4776 5.93083 19.819C5.62185 20.2585 4.45159 20.8734 4.27629 21.1381C4.09404 21.4133 4.95651 21.507 4.63871 21.7138C3.98215 22.141 4.39808 22.2534 4.32126 22.6711C4.17748 23.4529 3.58853 24.247 3.73002 25.1174C3.802 25.5602 5.27131 26.2638 5.67608 26.4178C6.26354 26.6412 6.58444 26.7264 7.09853 26.8037C7.30467 26.8347 7.63428 26.8804 9.73956 27.0668C11.6032 27.2317 15.0948 27.3622 17.7477 27.3103C20.4005 27.2584 22.1122 26.9749 23.5573 26.6216C25.0024 26.2684 26.129 25.854 26.8394 25.5533C27.8342 25.1322 28.2077 24.7239 28.4155 24.3941C28.5081 24.2472 28.515 24.1079 28.5045 23.9423C28.494 23.7768 28.4506 23.5805 28.2117 23.3594C27.9727 23.1383 27.5393 22.8984 25.5828 22.524C23.6262 22.1496 20.1596 21.648 17.8537 21.455C15.5479 21.262 14.5079 21.3929 13.7446 21.613C12.4705 21.9804 11.8842 22.8238 11.6216 23.4946C11.5075 23.786 11.5323 24.0127 11.619 24.1687C11.7922 24.4805 12.4042 24.5018 13.3303 24.4473C13.9113 24.4131 14.7114 24.2837 16.2294 23.8458C17.7473 23.408 19.9573 22.6447 21.5616 22.0006C23.166 21.3566 24.0976 20.8549 24.8809 20.3457C25.6642 19.8365 26.2709 19.3348 26.5942 18.9238C26.9176 18.5127 26.9392 18.2073 26.7446 17.941C26.5499 17.6747 26.1382 17.4566 24.8103 17.3551C23.4824 17.2537 21.2508 17.2755 19.2995 17.4939C17.3482 17.7123 15.7448 18.1267 14.4639 18.6237C13.1829 19.1207 12.2729 19.6878 11.7716 20.1326C11.2703 20.5773 11.2053 20.8827 11.2802 21.1381C11.355 21.3936 11.5717 21.5899 12.2466 21.8C12.9216 22.0102 14.0483 22.2283 15.3112 22.3406C16.5741 22.453 17.9391 22.453 19.1839 22.3767C20.4287 22.3003 21.5121 22.1477 22.3843 21.96C23.2566 21.7723 23.8849 21.5542 24.2194 21.3546C24.5539 21.155 24.5756 20.9805 24.5001 20.8143C24.3326 20.4455 23.5093 20.2072 22.1033 19.9872C21.266 19.8561 20.1556 19.8543 19.1205 19.8973C18.0855 19.9402 17.1538 20.0711 16.2622 20.313C15.3706 20.5549 14.5472 20.9038 14.0256 21.1817C13.504 21.4597 13.309 21.6559 13.2518 21.8007C13.1947 21.9454 13.2814 22.0327 13.4344 22.0558C13.8005 22.1111 14.1789 21.8813 14.4304 21.6616C14.5425 21.5636 14.5735 21.4418 14.5417 21.3093C14.4673 21 13.2932 20.8886 11.4689 21.0089C9.99115 21.1064 9.06231 21.6579 8.57022 22.0099C8.3713 22.1521 8.31645 22.2745 8.31547 22.3634C8.31448 22.4523 8.37948 22.5178 8.5863 22.5624C9.13133 22.6799 9.95195 22.5858 10.858 22.3995C11.771 22.2117 12.3405 21.7498 12.5703 21.4418C12.6628 21.3179 12.6485 21.2211 12.5943 21.1543C12.4703 21.0015 12.0385 20.999 11.3951 21.0753C10.5738 21.1728 9.74185 21.6797 9.00979 22.141C8.66964 22.3554 8.47272 22.646 8.3611 22.8571C8.24948 23.0683 8.24948 23.221 8.45532 23.3978C8.66115 23.5745 9.07282 23.7708 9.79405 23.9701C10.5153 24.1694 11.5336 24.3656 14.6257 24.5431C17.7178 24.7206 22.8528 24.8732 25.9856 24.8755C29.1184 24.8778 30.0934 24.7252 30.704 24.5702C31.3146 24.4152 31.5312 24.2625 31.6429 24.1185C31.7545 23.9744 31.7545 23.8435 31.6895 23.6889C31.5411 23.336 30.9055 22.9183 29.8803 22.4345C29.3267 22.1733 28.6384 22.0379 27.5016 21.9153C26.3647 21.7927 24.7831 21.7273 23.665 21.7372C22.5468 21.7471 21.9402 21.8344 21.411 21.9557C20.4357 22.1792 19.807 22.5832 19.674 22.8152C19.4749 23.1626 20.9376 22.1708 21.9641 21.303C22.9517 20.4682 23.4365 19.4611 23.6446 18.5497C23.7559 18.0622 23.6577 17.4856 23.4079 16.9972C23.1581 16.5088 22.7031 16.1162 21.9812 15.7831C21.2593 15.45 20.2843 15.1883 19.1645 15.0317C18.0448 14.8751 16.8098 14.8314 15.7619 14.8526C13.888 14.8904 12.9557 15.1163 13.0953 15.2481C13.267 15.4105 13.8631 15.38 15.1605 15.2719C16.4578 15.1639 18.4945 14.8803 20.0204 14.5707C21.5462 14.2611 22.4996 13.9339 23.1315 13.6564C24.0827 13.2385 24.3786 12.8487 24.401 12.6729C24.427 12.4681 23.6407 12.4072 22.2021 12.5054C21.3235 12.5653 20.1569 12.7998 19.0775 13.0318C17.9981 13.2638 17.0448 13.5255 16.3262 13.7803C15.6076 14.0351 15.1526 14.275 14.8965 14.464C14.6405 14.653 14.5971 14.7839 14.9757 14.8622C15.3542 14.9405 16.1558 14.9623 17.0888 14.8754C18.0218 14.7885 19.0618 14.5922 19.9767 14.3711C21.6636 13.9635 22.6263 13.4885 22.9217 13.1696C23.0412 13.0407 23.0222 12.9161 22.8272 12.7836C22.6322 12.6511 22.2422 12.4984 21.2613 12.3653C20.2804 12.2321 18.7204 12.1231 18.0576 12.0451C17.3948 11.9671 17.6764 11.9235 17.919 11.8683C18.1616 11.8131 18.3566 11.7477 18.3054 11.714C18.2542 11.6802 17.9509 11.6802 18.0438 11.5603C19.0256 10.2926 20.3066 10.6228 20.7111 10.5679C21.1953 10.5023 22.3571 10.753 23.6915 11.0722C24.5795 11.2846 25.4462 11.3498 25.8992 11.2295C26.4551 11.0819 26.0857 10.0518 26.2932 9.57824C26.4782 9.15605 26.5453 8.79606 26.6874 8.5089C26.8524 8.17573 26.9392 7.71614 27.212 7.12232C27.4299 6.64803 28.1408 6.43796 28.9713 6.2833C29.5289 6.17948 30.1321 6.34807 30.6889 6.60021C31.2993 6.87665 31.6435 7.60115 31.8841 8.31525C32.0041 8.6713 31.9948 9.05117 31.8976 9.50389C31.8004 9.95661 31.5838 10.48 30.4647 11.742C29.3455 13.004 27.3306 14.9887 26.2059 16.1965C25.0812 17.4043 24.9078 17.7751 24.8077 18.0315C24.7076 18.288 24.6859 18.4188 24.7722 18.4753C24.8586 18.5318 25.0536 18.51 26.454 17.9208C27.8545 17.3316 30.4545 16.1757 31.8914 15.5584C33.3283 14.9412 33.5233 14.8975 32.7679 15.7038C32.0125 16.5101 30.3008 18.1677 29.2241 19.316C28.1473 20.4643 27.7573 21.0532 27.5131 21.5201C27.2688 21.9871 27.1822 22.3142 27.1917 22.5154C27.2012 22.7167 27.3095 22.7821 27.4845 22.7722C27.9083 22.7482 28.49 22.4107 29.362 22.0482C30.5422 21.5575 31.4032 21.4616 31.5674 21.5489C32.0902 21.8268 31.5142 22.5838 31.4485 22.8585C31.4147 22.9999 31.4262 23.1549 31.5995 23.1572C32.1405 23.1644 33.04 22.3261 33.9586 21.3585C34.5978 20.6851 34.5994 19.9224 34.6214 19.3728C34.6607 18.3905 34.1194 17.828 33.9655 17.3882C33.9125 17.2368 33.8568 17.0375 33.4333 16.2821C33.0098 15.5267 32.2298 14.2181 31.7738 13.4022C31.1711 12.3237 30.9896 11.7272 30.7604 11.2322C30.3873 10.426 29.4578 10.3148 29.184 10.2375C29.0263 10.1929 28.9096 9.57196 28.8334 8.39522C28.745 7.02944 28.125 6.57278 27.7721 6.25059C27.6708 6.15808 27.6838 5.86627 27.7163 5.54706C27.7528 5.18833 28.2511 5.05006 28.5908 4.77479C28.9464 4.48671 29.6298 4.38915 29.9259 4.26755C30.2484 4.13512 30.484 4.07985 30.5723 4.06894C31.0515 4.00977 29.4815 4.101 29.1075 4.2226C28.7152 4.35022 28.364 4.51869 28.0895 4.7619C27.8202 5.0006 27.7718 5.33424 27.586 5.78531C27.4208 6.18635 27.4435 6.52387 27.3342 6.76676C27.3085 6.8238 27.2255 6.83318 27.1812 6.78989C27.1369 6.7466 27.1152 6.63755 27.1365 6.52685C27.2335 6.02376 27.5301 5.66734 27.7593 5.34812C28.1422 4.81471 28.318 4.52133 28.3187 4.38915C28.319 4.32698 28.146 4.34421 28.0465 4.36602C27.6741 4.44769 27.6181 5.09103 27.5525 5.57647C27.5104 5.88747 28.2511 5.24833 28.6013 4.88582C29.2871 4.17609 29.8925 3.86043 30.1886 3.73882C30.511 3.6064 30.7683 3.50751 31.1728 3.43018C31.292 3.40739 31.4236 3.41894 31.4364 3.41894C31.8193 3.41894 30.5306 3.59474 30.0494 3.69388C29.7821 3.74894 29.5668 3.8373 29.403 3.88125C29.1619 3.94593 30.746 3.5736 31.2161 3.49627C32.0934 3.35197 32.847 3.7494 33.7426 3.87001C34.211 3.93311 34.8141 4.36272 35.6692 5.1677C35.996 5.47526 36.2835 5.62108 36.8297 6.01696C37.1864 6.27545 37.3129 6.58996 37.4659 6.90951C37.6152 7.2213 37.8159 7.51523 37.9258 7.79083C38.0588 8.12393 38.1665 8.52774 38.2541 8.93584C38.3639 9.44676 38.3635 9.7623 38.4511 10.1916C38.5218 10.5375 38.6261 10.8858 38.7137 11.2163C38.8058 11.5633 38.823 11.8772 38.8345 12.6904C38.8403 13.1013 38.6051 13.3973 38.4088 13.662C38.1209 14.0501 37.3405 14.1679 36.4847 14.3784C36.2897 14.4263 36.0917 14.4336 35.9371 14.4448C35.7825 14.456 35.6742 14.456 35.6184 14.1725C35.5625 13.889 35.5626 13.3219 35.4867 12.2883C35.4109 11.2546 35.2592 9.77156 35.1486 8.8985C35.038 8.02545 34.973 7.80735 34.8853 7.68409C34.7977 7.56083 34.6893 7.53902 34.601 7.57141C34.5127 7.60379 34.4477 7.69103 34.4034 7.77959C34.3194 7.94743 34.3367 8.74319 34.5321 10.8475C34.6631 12.2586 35.0307 14.3477 35.1982 15.6116C35.4755 17.7057 35.4746 17.98 35.6052 18.1231C35.7613 18.294 36.0865 18.2232 36.316 18.1687C36.541 18.1152 36.6124 17.8273 36.6459 17.7282C36.6607 17.6844 36.4844 17.6945 36.4391 17.6618C36.3938 17.6291 36.4371 17.5636 36.4919 17.519C36.5467 17.4744 36.6117 17.4526 36.6777 17.4523C36.7437 17.4519 36.8087 17.4737 36.853 17.5286C37.2214 17.9845 37.028 18.9489 37.1596 19.2463C37.3441 19.663 37.6189 19.7644 37.7394 19.8203C38.2074 20.0372 37.5112 18.863 37.4558 18.7308C37.3825 18.5562 37.9465 18.6422 38.068 18.4998C38.1349 18.4214 37.8211 18.2483 37.7745 18.2133C37.5133 18.017 38.3621 18.6832 38.8109 19.2126C39.1646 19.6298 39.1513 20.1372 39.2281 20.4802C39.3031 20.8151 39.3483 21.1735 39.436 21.5482C39.5918 22.2146 39.4586 22.9804 39.4254 23.2999C39.3959 23.5849 39.2616 23.8396 39.1087 24.1043C38.9449 24.3876 38.5841 24.4793 38.3211 24.6224C38.074 24.7569 37.7528 24.8098 37.2388 25.1174C36.8831 25.3303 36.4187 25.4482 36.0235 25.5589C35.6798 25.6552 35.0202 25.7126 34.5242 25.7684C34.2206 25.8026 33.7925 25.9333 33.4517 26.0324C33.098 26.1353 32.763 26.2201 32.3034 26.3408C31.944 26.4351 31.6901 26.5942 31.3727 26.7373C31.0692 26.8741 30.6186 26.9247 29.9187 27.0569C29.4637 27.1428 29.0205 27.1454 28.561 27.2003C28.365 27.2237 28.1664 27.2333 27.6447 27.2664C26.5186 27.3377 25.6714 27.2994 24.5973 27.2997C23.6312 27.3 21.8115 27.2128 20.7547 27.1573C19.4577 27.0892 18.8891 26.9914 18.2775 26.9366C17.2441 26.8439 16.5458 26.7713 15.4599 26.6289C14.5497 26.5095 12.9006 26.3774 12.009 26.2879C11.0293 26.1895 10.1614 26.1541 8.94708 26.165C8.51265 26.1689 8.44777 26.1977 8.40345 26.2416C8.31289 26.3314 8.31514 26.5493 8.33681 26.7803C8.36571 27.0884 8.94675 27.2974 9.299 27.4864C9.90358 27.8109 11.0491 27.9596 11.8245 28.1692C12.5171 28.3563 13.0188 28.335 13.4019 28.3899C13.9128 28.4631 14.3962 28.4672 14.9228 28.5221C15.2952 28.5609 15.9484 28.5994 17.875 28.6543C19.2957 28.6947 22.0045 28.6655 23.443 28.6546C25.1667 28.6415 25.8191 28.5122 26.347 28.4454C26.9651 28.3673 28.0475 28.1606 28.9181 27.994C29.6601 27.8521 30.8734 27.4997 31.5339 27.2783C31.9165 27.15 32.2561 26.9921 32.6612 26.8814C33.0259 26.7817 33.3289 26.6392 33.7662 26.4412C34.1083 26.2864 34.5528 26.0893 35.0793 25.8246C35.4665 25.63 35.7582 25.4284 36.1738 24.8785C36.4543 24.5074 36.6341 23.9982 36.7877 23.3921C36.8446 23.1676 36.81 22.8125 36.8967 22.6219C37.036 22.3153 37.4003 22.3651 37.4771 22.3866C37.8876 22.5013 37.2053 23.4192 37.0185 23.7738C36.883 24.031 36.68 24.6512 36.5369 25.1065C36.429 25.4498 36.1981 25.6901 36.0665 25.9439C35.9256 26.2155 35.5639 26.2638 35.2901 26.3411C35.1266 26.3523 34.9723 26.3741 34.7438 26.4072C34.5803 26.4184 34.3203 26.4184 34.0525 26.4184" stroke="#C7E4FF" stroke-width="5" stroke-linecap="round"/>
<path d="M20.2646 20.9328C20.2213 20.9328 20.5023 20.9328 20.8969 20.9437C21.1539 20.9508 20.3756 21.131 20.1458 21.0765C20.0532 21.0546 20.0677 20.9129 20.0568 20.9004C19.8227 20.629 20.5489 21.6591 20.6142 21.7473C20.8549 21.6604 21.0302 21.4622 21.1283 21.3303C21.1832 21.2639 21.2482 21.1985 21.3151 21.0649" stroke="#FF7C7C" stroke-linecap="round"/>
<path d="M17.207 9.4094C17.4421 9.27804 17.8076 9.06756 18.2404 8.9089C18.8021 8.70295 19.2493 8.43452 19.6946 8.30198C20.0551 8.19469 20.5322 8.17022 21.8922 8.16943C22.6288 8.35381 23.3363 8.56429 23.7289 8.72255C23.8881 8.77636 23.9659 8.77636 24.2033 8.85549" stroke="black" stroke-linecap="round"/>
<path d="M17.0497 9.33004C17.0497 8.57118 16.9978 7.19512 16.8799 6.73379C16.7722 6.31253 16.5796 5.79927 15.8737 5.00718C15.1828 4.23201 14.4052 4.02993 13.9984 3.79174C13.6535 3.58978 13.278 3.44911 12.9631 3.32963C12.6146 3.19735 12.1774 3.15792 11.7584 3.07918C11.2364 2.98109 10.8678 2.94743 9.75939 2.85485C8.03741 2.71102 6.7274 2.89362 6.41335 2.97275C6.02752 3.06997 5.49715 3.18324 5.06322 3.39451C4.56529 3.63695 4.13405 3.8685 3.60933 4.19847C3.08054 4.531 2.9266 4.97632 2.48245 5.63468C2.13837 6.14471 1.90467 6.63804 1.57804 7.5326C1.30678 8.27554 1.19718 8.69542 1.09223 9.15674C0.861697 10.1702 1.117 11.8337 1.27461 12.3346C1.5674 13.2651 1.95498 13.8911 2.59565 14.7599C3.00049 15.2078 3.73314 15.7886 4.55815 16.3556C4.86434 16.557 4.94216 16.5831 5.17957 16.6891" stroke="black" stroke-linecap="round"/>
<path d="M24.5176 8.77639C24.4917 8.61892 24.439 6.84088 24.5043 5.75759C24.5274 5.37327 24.7 4.95442 24.9618 4.46619C25.4636 3.53034 25.7738 3.10754 26.2974 2.56668C26.6954 2.15546 27.1621 1.94591 27.7513 1.66896C28.3906 1.36843 28.9434 1.33819 29.5334 1.19378C30.0142 1.07607 30.3332 1.04858 31.2482 1.00862C32.088 0.971945 33.3959 1.047 34.1698 1.33661C35.7797 1.93908 36.3327 2.26085 37.0273 2.69487C37.5015 2.99122 38.2445 3.60289 38.7315 4.22445C39.0202 4.59292 39.2429 4.94968 39.6737 5.7117C40.3432 6.896 40.7624 8.21774 40.9849 8.98213C41.1898 9.68626 41.3402 10.2514 41.4055 10.6344C41.4922 11.1436 41.4974 12.6142 41.3669 13.536C41.3128 13.9188 41.2097 14.2348 41.0266 14.5517C40.8 14.9437 40.3985 15.3426 40.0184 15.6464C39.926 15.7129 39.8482 15.7651 39.7692 15.8182C39.6902 15.8712 39.6124 15.9234 39.4536 16.0563" stroke="black" stroke-linecap="round"/>
<path d="M5.41528 16.8479C5.2329 16.8479 4.86658 16.9002 4.55174 17.0845C4.14885 17.3205 3.81792 17.7959 3.52981 18.1916C3.22855 18.6053 2.97993 19.0351 2.67807 19.4446C2.45745 19.7439 2.29917 20.2996 2.07513 20.8677C1.64907 21.9482 1.7206 22.6735 1.65535 23.3726C1.51914 24.8321 1.82437 25.4699 2.04723 25.9459C2.43095 26.7654 2.68908 27.3706 3.04243 27.8189C3.44042 28.3238 4.20783 28.6114 4.90156 28.914C5.42028 29.1404 6.32558 29.3489 7.64898 29.7311C8.20557 29.8918 9.11781 30.0848 10.4157 30.3099C11.7135 30.535 13.3738 30.77 15.4353 30.8911C17.4969 31.0122 19.9094 31.0122 21.3338 30.9861C23.1228 30.9533 23.6513 30.8539 23.9649 30.8409C24.2807 30.8277 24.5946 30.7748 25.5308 30.6703C26.3135 30.583 27.7122 30.357 28.5247 30.2232C29.5225 30.059 29.8615 29.9574 30.1751 29.8917C30.4949 29.8247 31.4014 29.6155 33.2028 29.2349C34.2578 29.012 35.5748 28.6193 36.3212 28.4048C37.5209 28.0602 38.0369 27.8217 39.0042 27.3477C39.4921 27.1086 40.0006 26.7676 40.4605 26.4242C41.1835 25.8842 41.2866 25.3955 41.5095 24.9738C41.8319 24.3636 41.8904 23.8129 42.0209 23.2468C42.1609 22.6391 42.1262 21.1605 41.9698 19.989C41.9164 19.5892 41.6042 19.0414 41.2756 18.5243C41.0618 18.1877 40.5839 17.6693 40.0187 17.0477C39.7962 16.8495 39.6115 16.6905 39.4157 16.5195C39.2978 16.427 39.1422 16.3225 38.9032 16.0566" stroke="black" stroke-linecap="round"/>
<path d="M17.2069 18.5889C16.9208 18.5889 16.2919 18.6933 15.9503 18.7732C15.6181 18.851 15.3218 19.0621 14.9158 19.3394C14.6678 19.5622 14.4563 19.7489 14.2995 19.8542C14.2205 19.9072 14.1427 19.9594 14.0625 20.0923" stroke="black" stroke-linecap="round"/>
<path d="M23.4956 18.4305C23.652 18.4044 24.0176 18.2991 25.3508 18.2983C25.9317 18.4566 26.2454 18.5618 26.7296 18.8641C26.8743 18.9828 27.0299 19.1395 27.1903 19.38" stroke="black" stroke-linecap="round"/>
<path d="M19.0935 20.2505H22.0021" stroke="black" stroke-linecap="round"/>
<path d="M19.3293 20.2505C19.3293 20.4863 19.3812 20.9611 19.4862 21.278C19.5911 21.5949 19.7476 21.9106 19.9574 22.2275C20.1673 22.5445 20.3505 22.7557 20.5203 22.8349C20.6072 22.8754 20.716 22.8618 20.7954 22.7834C21.1723 22.4116 21.1893 21.9929 21.3072 21.676C21.4778 21.3591 21.5823 21.0434 21.7525 20.7265C21.7922 20.6469 21.8181 20.5686 21.8449 20.4087" stroke="black" stroke-linecap="round"/>
</svg>
