<svg width="43" height="32" viewBox="0 0 43 32" fill="none" xmlns="http://www.w3.org/2000/svg">
<path d="M10.7443 9.16881C10.2243 9.51777 9.89145 9.8502 9.78213 10.2887C9.61206 10.9709 9.75883 11.8085 9.96564 12.545C10.1612 13.2416 10.9157 13.7046 11.6363 14.0899C11.9725 14.2697 12.3135 14.2789 12.7301 13.9306C13.8205 13.019 14.1585 11.7715 14.0826 11.1234C13.9955 10.3793 13.4822 9.85351 12.9806 9.55643C12.4129 9.22022 11.7318 9.30099 11.2295 9.38823C10.7097 9.47851 10.439 10.0042 10.2641 10.3449C10.113 10.639 10.1534 10.9083 10.2184 11.0623C10.3059 11.2696 10.7207 11.2176 11.1242 11.174C11.6492 11.1172 12.1211 10.7352 12.4383 10.2738C12.7388 9.83663 12.6484 9.36841 12.605 9.11561C12.5832 8.98799 12.475 8.88462 12.3221 8.81754C11.9736 8.66476 11.4258 8.81523 10.8037 9.11131C9.42744 9.76637 9.16989 11.1251 9.13542 11.5801C9.13053 11.6447 9.23292 11.6578 9.3314 11.6581C9.56088 11.6589 9.99716 11.3306 10.5434 10.7375C11.0582 10.1784 11.2466 9.34924 11.4216 8.55781C11.5747 7.86497 11.4455 7.34207 11.2601 7.06681C11.1811 6.94962 11.0529 6.94421 10.8671 6.97659C10.4125 7.05583 9.80675 7.51325 9.184 8.1725C8.62809 8.761 8.42534 9.53958 8.3157 10.2431C8.22076 10.8523 8.5107 11.326 8.83767 11.6231C9.00958 11.7793 9.29463 11.8111 9.55857 11.8121C10.0864 11.8141 10.6321 11.3095 11.1022 10.6169C11.8417 9.52725 11.3799 8.22438 11.1727 7.74027C11.0806 7.52499 10.9006 7.43063 10.7141 7.37446C10.5277 7.31828 10.311 7.31828 10.0477 7.43823C9.43735 7.71632 8.95191 8.41604 8.59113 9.16319C8.25401 9.86133 8.31504 10.6195 8.39087 11.246C8.428 11.5527 8.61837 11.8071 8.8265 11.9856C9.23563 12.3364 9.84418 12.3193 10.4118 12.1554C11.0799 11.9625 11.5079 10.9585 11.8907 9.93645C12.2324 9.02398 12.0364 8.09352 11.8293 7.40023C11.7423 7.10899 11.5572 6.99047 11.414 6.91215C11.2709 6.83384 11.1409 6.81203 10.9331 6.89894C10.4117 7.11698 10.0018 7.6679 9.72862 8.21744C9.23697 9.20665 9.40888 10.2448 9.59436 10.6C9.68566 10.7749 10.5625 10.3399 11.6993 9.76759C12.7348 9.24629 13.4323 9.30099 14.0468 9.45432C14.397 9.54168 14.6824 9.71935 14.836 9.71968C15.1747 9.7204 14.4211 7.94878 14.2796 7.06581C14.2297 6.75445 13.5058 6.6587 13 6.45977C12.5718 6.29141 11.8421 6.12865 11.4459 6.0738C11.0539 6.01954 10.529 5.99647 10.0894 5.94162C9.76571 5.90122 9.32418 5.86495 8.89807 5.75491C8.5837 5.67373 7.49302 5.66602 5.97275 5.70964C4.85388 5.74174 4.48596 6.58996 4.31066 6.86556C4.10974 7.18142 4.0697 7.51523 3.98205 7.83478C3.90545 8.11402 3.80707 8.46165 3.77392 8.93584C3.76214 9.10419 3.71909 9.95397 3.72993 11.1872C3.73763 12.0639 4.09071 12.7575 4.27619 13.1438C4.51215 13.6353 5.05192 13.7938 5.75149 14.0803C6.47861 14.3781 6.80363 14.6094 7.26224 14.7967C7.66098 14.9596 8.09444 14.9848 8.38956 14.9521C8.51486 14.9382 8.57635 14.8539 8.62067 14.7657C8.91857 14.1726 8.57898 12.7007 8.39219 11.9466C8.24005 11.3324 8.03141 10.7563 7.79077 10.3819C7.57123 10.0403 7.26585 9.63409 7.06823 9.26927C6.83116 8.83164 6.8706 7.13455 6.97959 6.12997C6.9987 5.95379 7.02358 5.79886 7.14307 5.69973C7.54257 5.36829 7.96312 5.55631 8.42272 5.52293C9.12098 5.47223 10.0865 5.55499 10.5237 5.72054C10.9881 5.89635 11.6176 5.974 12.1103 6.02919C12.5543 6.07891 12.735 6.30445 12.8338 6.38145C13.0406 6.54255 11.9734 6.32825 11.4899 6.19507C11.202 6.1158 10.8993 6.06256 10.6787 5.9968C10.468 5.934 11.1593 5.90857 11.2256 5.86462C11.601 5.61582 10.395 5.66602 10.2962 5.68783C10.0767 5.73629 10.4817 6.21457 10.547 6.84111C10.5778 7.1364 10.5907 7.61701 10.7752 8.63844C10.9597 9.65986 11.3063 11.2084 11.4958 12.1042C11.6852 13.0001 11.7069 13.1964 11.8155 13.6682C11.9242 14.1401 12.1192 14.8817 12.3388 15.5472C12.5584 16.2127 12.7967 16.7798 13.1254 17.41C13.8197 18.7415 14.3981 19.5219 14.4214 19.7089C14.4357 19.8238 14.0547 19.8305 13.368 19.8639C12.6812 19.8973 11.5979 19.9191 11.0398 19.6359C9.47856 18.8436 10.5907 17.3878 10.6672 17.0798C10.7003 16.9463 10.722 16.8591 10.5707 16.836C9.29685 16.6413 8.07736 17.5174 7.53997 17.7814C7.04275 18.0257 6.31154 17.9688 5.97275 18.4753C5.76514 18.7858 6.1707 19.4776 5.93073 19.819C5.62175 20.2585 4.45149 20.8734 4.27619 21.1381C4.09394 21.4133 4.95641 21.507 4.63861 21.7138C3.98205 22.141 4.39798 22.2534 4.32116 22.6711C4.17738 23.4529 3.58844 24.247 3.72993 25.1174C3.8019 25.5602 5.27121 26.2638 5.67598 26.4178C6.26344 26.6412 6.58434 26.7264 7.09843 26.8037C7.30457 26.8347 7.63418 26.8804 9.73946 27.0668C11.6031 27.2317 15.0947 27.3622 17.7476 27.3103C20.4004 27.2584 22.1121 26.9749 23.5572 26.6216C25.0023 26.2684 26.1289 25.854 26.8393 25.5533C27.8341 25.1322 28.2076 24.7239 28.4154 24.3941C28.508 24.2472 28.5149 24.1079 28.5044 23.9423C28.4939 23.7768 28.4505 23.5805 28.2116 23.3594C27.9726 23.1383 27.5392 22.8984 25.5827 22.524C23.6261 22.1496 20.1595 21.648 17.8536 21.455C15.5478 21.262 14.5078 21.3929 13.7445 21.613C12.4704 21.9804 11.8841 22.8238 11.6215 23.4946C11.5074 23.786 11.5322 24.0127 11.6189 24.1687C11.7921 24.4805 12.4041 24.5018 13.3302 24.4473C13.9112 24.4131 14.7113 24.2837 16.2293 23.8458C17.7472 23.408 19.9572 22.6447 21.5616 22.0006C23.1659 21.3566 24.0975 20.8549 24.8808 20.3457C25.6641 19.8365 26.2708 19.3348 26.5941 18.9238C26.9175 18.5127 26.9391 18.2073 26.7445 17.941C26.5498 17.6747 26.1381 17.4566 24.8102 17.3551C23.4823 17.2537 21.2507 17.2755 19.2994 17.4939C17.3481 17.7123 15.7447 18.1267 14.4638 18.6237C13.1828 19.1207 12.2728 19.6878 11.7715 20.1326C11.2702 20.5773 11.2052 20.8827 11.2801 21.1381C11.3549 21.3936 11.5716 21.5899 12.2465 21.8C12.9215 22.0102 14.0482 22.2283 15.3111 22.3406C16.574 22.453 17.939 22.453 19.1838 22.3767C20.4286 22.3003 21.512 22.1477 22.3842 21.96C23.2565 21.7723 23.8848 21.5542 24.2193 21.3546C24.5538 21.155 24.5755 20.9805 24.5 20.8143C24.3325 20.4455 23.5092 20.2072 22.1032 19.9872C21.2659 19.8561 20.1555 19.8543 19.1204 19.8973C18.0854 19.9402 17.1537 20.0711 16.2621 20.313C15.3705 20.5549 14.5471 20.9038 14.0255 21.1817C13.5039 21.4597 13.3089 21.6559 13.2517 21.8007C13.1946 21.9454 13.2813 22.0327 13.4343 22.0558C13.8004 22.1111 14.1788 21.8813 14.4303 21.6616C14.5424 21.5636 14.5734 21.4418 14.5416 21.3093C14.4672 21 13.2931 20.8886 11.4688 21.0089C9.99105 21.1064 9.06221 21.6579 8.57012 22.0099C8.3712 22.1521 8.31635 22.2745 8.31537 22.3634C8.31438 22.4523 8.37938 22.5178 8.5862 22.5624C9.13123 22.6799 9.95186 22.5858 10.8579 22.3995C11.7709 22.2117 12.3404 21.7498 12.5702 21.4418C12.6627 21.3179 12.6484 21.2211 12.5942 21.1543C12.4702 21.0015 12.0384 20.999 11.395 21.0753C10.5737 21.1728 9.74176 21.6797 9.00969 22.141C8.66954 22.3554 8.47262 22.646 8.361 22.8571C8.24938 23.0683 8.24938 23.221 8.45522 23.3978C8.66105 23.5745 9.07272 23.7708 9.79395 23.9701C10.5152 24.1694 11.5335 24.3656 14.6256 24.5431C17.7177 24.7206 22.8527 24.8732 25.9855 24.8755C29.1183 24.8778 30.0933 24.7252 30.7039 24.5702C31.3145 24.4152 31.5311 24.2625 31.6428 24.1185C31.7544 23.9744 31.7544 23.8435 31.6894 23.6889C31.541 23.336 30.9054 22.9183 29.8802 22.4345C29.3266 22.1733 28.6383 22.0379 27.5015 21.9153C26.3646 21.7927 24.783 21.7273 23.6649 21.7372C22.5467 21.7471 21.9401 21.8344 21.4109 21.9557C20.4356 22.1792 19.8069 22.5832 19.6739 22.8152C19.4748 23.1626 20.9375 22.1708 21.964 21.303C22.9516 20.4682 23.4364 19.4611 23.6445 18.5497C23.7558 18.0622 23.6576 17.4856 23.4078 16.9972C23.158 16.5088 22.703 16.1162 21.9811 15.7831C21.2592 15.45 20.2842 15.1883 19.1644 15.0317C18.0447 14.8751 16.8097 14.8314 15.7618 14.8526C13.8879 14.8904 12.9556 15.1163 13.0952 15.2481C13.2669 15.4105 13.863 15.38 15.1604 15.2719C16.4577 15.1639 18.4944 14.8803 20.0203 14.5707C21.5461 14.2611 22.4995 13.9339 23.1314 13.6564C24.0826 13.2385 24.3785 12.8487 24.4009 12.6729C24.4269 12.4681 23.6406 12.4072 22.202 12.5054C21.3234 12.5653 20.1568 12.7998 19.0774 13.0318C17.998 13.2638 17.0447 13.5255 16.3261 13.7803C15.6075 14.0351 15.1525 14.275 14.8964 14.464C14.6404 14.653 14.597 14.7839 14.9756 14.8622C15.3541 14.9405 16.1557 14.9623 17.0887 14.8754C18.0217 14.7885 19.0617 14.5922 19.9766 14.3711C21.6635 13.9635 22.6262 13.4885 22.9216 13.1696C23.0411 13.0407 23.0221 12.9161 22.8271 12.7836C22.6321 12.6511 22.2421 12.4984 21.2612 12.3653C20.2803 12.2321 18.7203 12.1231 18.0575 12.0451C17.3947 11.9671 17.6763 11.9235 17.9189 11.8683C18.1615 11.8131 18.3565 11.7477 18.3053 11.714C18.2541 11.6802 17.9508 11.6802 18.0437 11.5603C19.0255 10.2926 20.3065 10.6228 20.711 10.5679C21.1952 10.5023 22.357 10.753 23.6914 11.0722C24.5794 11.2846 25.4461 11.3498 25.8991 11.2295C26.455 11.0819 26.0856 10.0518 26.2931 9.57824C26.4781 9.15605 26.5452 8.79606 26.6873 8.5089C26.8523 8.17573 26.9391 7.71614 27.2119 7.12232C27.4298 6.64803 28.1407 6.43796 28.9712 6.2833C29.5288 6.17948 30.132 6.34807 30.6888 6.60021C31.2992 6.87665 31.6434 7.60115 31.8841 8.31525C32.004 8.6713 31.9947 9.05117 31.8975 9.50389C31.8003 9.95661 31.5837 10.48 30.4646 11.742C29.3454 13.004 27.3305 14.9887 26.2058 16.1965C25.0811 17.4043 24.9077 17.7751 24.8076 18.0315C24.7075 18.288 24.6858 18.4188 24.7721 18.4753C24.8585 18.5318 25.0535 18.51 26.4539 17.9208C27.8544 17.3316 30.4544 16.1757 31.8913 15.5584C33.3282 14.9412 33.5232 14.8975 32.7678 15.7038C32.0124 16.5101 30.3007 18.1677 29.224 19.316C28.1472 20.4643 27.7572 21.0532 27.513 21.5201C27.2687 21.9871 27.1821 22.3142 27.1916 22.5154C27.2011 22.7167 27.3094 22.7821 27.4844 22.7722C27.9082 22.7482 28.4899 22.4107 29.3619 22.0482C30.5421 21.5575 31.4031 21.4616 31.5673 21.5489C32.0901 21.8268 31.5141 22.5838 31.4484 22.8585C31.4146 22.9999 31.4261 23.1549 31.5994 23.1572C32.1404 23.1644 33.0399 22.3261 33.9585 21.3585C34.5977 20.6851 34.5993 19.9224 34.6213 19.3728C34.6606 18.3905 34.1193 17.828 33.9654 17.3882C33.9124 17.2368 33.8567 17.0375 33.4332 16.2821C33.0097 15.5267 32.2297 14.2181 31.7737 13.4022C31.171 12.3237 30.9895 11.7272 30.7603 11.2322C30.3872 10.426 29.4577 10.3148 29.1839 10.2375C29.0262 10.1929 28.9095 9.57196 28.8333 8.39522C28.7449 7.02944 28.1249 6.57278 27.772 6.25059C27.6707 6.15808 27.6837 5.86627 27.7162 5.54706C27.7527 5.18833 28.251 5.05006 28.5907 4.77479C28.9463 4.48671 29.6297 4.38915 29.9258 4.26755C30.2483 4.13512 30.4839 4.07985 30.5722 4.06894C31.0514 4.00977 29.4814 4.101 29.1074 4.2226C28.7151 4.35022 28.3639 4.51869 28.0894 4.7619C27.8201 5.0006 27.7717 5.33424 27.5859 5.78531C27.4207 6.18635 27.4434 6.52387 27.3341 6.76676C27.3084 6.8238 27.2254 6.83318 27.1811 6.78989C27.1368 6.7466 27.1151 6.63755 27.1364 6.52685C27.2334 6.02376 27.53 5.66734 27.7592 5.34812C28.1421 4.81471 28.3179 4.52133 28.3186 4.38915C28.3189 4.32698 28.1459 4.34421 28.0464 4.36602C27.674 4.44769 27.618 5.09103 27.5524 5.57647C27.5103 5.88747 28.251 5.24833 28.6012 4.88582C29.287 4.17609 29.8924 3.86043 30.1885 3.73882C30.5109 3.6064 30.7682 3.50751 31.1727 3.43018C31.2919 3.40739 31.4235 3.41894 31.4363 3.41894C31.8192 3.41894 30.5305 3.59474 30.0493 3.69388C29.782 3.74894 29.5667 3.8373 29.4029 3.88125C29.1618 3.94593 30.7459 3.5736 31.216 3.49627C32.0933 3.35197 32.8469 3.7494 33.7425 3.87001C34.2109 3.93311 34.814 4.36272 35.6691 5.1677C35.9959 5.47526 36.2834 5.62108 36.8296 6.01696C37.1863 6.27545 37.3128 6.58996 37.4658 6.90951C37.6151 7.2213 37.8158 7.51523 37.9258 7.79083C38.0587 8.12393 38.1664 8.52774 38.254 8.93584C38.3638 9.44676 38.3634 9.7623 38.451 10.1916C38.5217 10.5375 38.626 10.8858 38.7136 11.2163C38.8057 11.5633 38.8229 11.8772 38.8344 12.6904C38.8402 13.1013 38.605 13.3973 38.4087 13.662C38.1208 14.0501 37.3404 14.1679 36.4846 14.3784C36.2896 14.4263 36.0916 14.4336 35.937 14.4448C35.7824 14.456 35.6741 14.456 35.6183 14.1725C35.5624 13.889 35.5625 13.3219 35.4866 12.2883C35.4108 11.2546 35.2591 9.77156 35.1485 8.8985C35.0379 8.02545 34.9729 7.80735 34.8852 7.68409C34.7976 7.56083 34.6892 7.53902 34.6009 7.57141C34.5126 7.60379 34.4476 7.69103 34.4033 7.77959C34.3193 7.94743 34.3366 8.74319 34.532 10.8475C34.663 12.2586 35.0306 14.3477 35.1981 15.6116C35.4754 17.7057 35.4745 17.98 35.6051 18.1231C35.7612 18.294 36.0864 18.2232 36.3159 18.1687C36.5409 18.1152 36.6123 17.8273 36.6458 17.7282C36.6606 17.6844 36.4843 17.6945 36.439 17.6618C36.3937 17.6291 36.437 17.5636 36.4918 17.519C36.5466 17.4744 36.6116 17.4526 36.6776 17.4523C36.7436 17.4519 36.8086 17.4737 36.8529 17.5286C37.2213 17.9845 37.0279 18.9489 37.1595 19.2463C37.344 19.663 37.6188 19.7644 37.7393 19.8203C38.2073 20.0372 37.5111 18.863 37.4557 18.7308C37.3824 18.5562 37.9464 18.6422 38.0679 18.4998C38.1348 18.4214 37.821 18.2483 37.7744 18.2133C37.5132 18.017 38.362 18.6832 38.8108 19.2126C39.1645 19.6298 39.1512 20.1372 39.2281 20.4802C39.303 20.8151 39.3482 21.1735 39.4359 21.5482C39.5917 22.2146 39.4585 22.9804 39.4253 23.2999C39.3958 23.5849 39.2615 23.8396 39.1086 24.1043C38.9448 24.3876 38.584 24.4793 38.321 24.6224C38.0739 24.7569 37.7527 24.8098 37.2387 25.1174C36.883 25.3303 36.4186 25.4482 36.0234 25.5589C35.6797 25.6552 35.0201 25.7126 34.5241 25.7684C34.2205 25.8026 33.7924 25.9333 33.4516 26.0324C33.0979 26.1353 32.7629 26.2201 32.3033 26.3408C31.9439 26.4351 31.69 26.5942 31.3726 26.7373C31.0691 26.8741 30.6185 26.9247 29.9186 27.0569C29.4636 27.1428 29.0204 27.1454 28.5609 27.2003C28.3649 27.2237 28.1663 27.2333 27.6446 27.2664C26.5185 27.3377 25.6713 27.2994 24.5972 27.2997C23.6311 27.3 21.8114 27.2128 20.7546 27.1573C19.4576 27.0892 18.889 26.9914 18.2774 26.9366C17.244 26.8439 16.5457 26.7713 15.4598 26.6289C14.5496 26.5095 12.9005 26.3774 12.0089 26.2879C11.0292 26.1895 10.1613 26.1541 8.94698 26.165C8.51255 26.1689 8.44767 26.1977 8.40335 26.2416C8.31279 26.3314 8.31504 26.5493 8.33671 26.7803C8.36561 27.0884 8.94666 27.2974 9.2989 27.4864C9.90348 27.8109 11.049 27.9596 11.8244 28.1692C12.517 28.3563 13.0187 28.335 13.4018 28.3899C13.9127 28.4631 14.3961 28.4672 14.9227 28.5221C15.2951 28.5609 15.9483 28.5994 17.8749 28.6543C19.2956 28.6947 22.0044 28.6655 23.4429 28.6546C25.1666 28.6415 25.819 28.5122 26.3469 28.4454C26.965 28.3673 28.0474 28.1606 28.918 27.994C29.66 27.8521 30.8733 27.4997 31.5338 27.2783C31.9164 27.15 32.256 26.9921 32.6611 26.8814C33.0258 26.7817 33.3288 26.6392 33.7661 26.4412C34.1082 26.2864 34.5527 26.0893 35.0792 25.8246C35.4664 25.63 35.7581 25.4284 36.1737 24.8785C36.4542 24.5074 36.634 23.9982 36.7876 23.3921C36.8445 23.1676 36.8099 22.8125 36.8966 22.6219C37.0359 22.3153 37.4002 22.3651 37.477 22.3866C37.8875 22.5013 37.2052 23.4192 37.0184 23.7738C36.8829 24.031 36.6799 24.6512 36.5368 25.1065C36.4289 25.4498 36.198 25.6901 36.0664 25.9439C35.9255 26.2155 35.5638 26.2638 35.29 26.3411C35.1265 26.3523 34.9722 26.3741 34.7437 26.4072C34.5802 26.4184 34.3202 26.4184 34.0524 26.4184" stroke="#FFACAC" stroke-width="5" stroke-linecap="round"/>
<path d="M20.2645 20.9328C20.2212 20.9328 20.5022 20.9328 20.8968 20.9437C21.1538 20.9508 20.3755 21.131 20.1457 21.0765C20.0531 21.0546 20.0675 20.9129 20.0567 20.9004C19.8226 20.629 20.5488 21.6591 20.6141 21.7473C20.8548 21.6604 21.0301 21.4622 21.1282 21.3303C21.183 21.2639 21.248 21.1985 21.315 21.0649" stroke="#FF7C7C" stroke-linecap="round"/>
<path d="M17.2069 9.4094C17.442 9.27804 17.8075 9.06756 18.2403 8.9089C18.802 8.70295 19.2492 8.43452 19.6945 8.30198C20.055 8.19469 20.5321 8.17022 21.8921 8.16943C22.6287 8.35381 23.3362 8.56429 23.7288 8.72255C23.888 8.77636 23.9658 8.77636 24.2032 8.85549" stroke="black" stroke-linecap="round"/>
<path d="M17.0497 9.33004C17.0497 8.57118 16.9978 7.19512 16.8799 6.73379C16.7722 6.31253 16.5796 5.79927 15.8737 5.00718C15.1828 4.23201 14.4052 4.02993 13.9984 3.79174C13.6535 3.58978 13.278 3.44911 12.9631 3.32963C12.6146 3.19735 12.1774 3.15792 11.7584 3.07918C11.2364 2.98109 10.8678 2.94743 9.75939 2.85485C8.03741 2.71102 6.7274 2.89362 6.41335 2.97275C6.02752 3.06997 5.49715 3.18324 5.06322 3.39451C4.56529 3.63695 4.13405 3.8685 3.60933 4.19847C3.08054 4.531 2.9266 4.97632 2.48245 5.63468C2.13837 6.14471 1.90467 6.63804 1.57804 7.5326C1.30678 8.27554 1.19718 8.69542 1.09223 9.15674C0.861697 10.1702 1.117 11.8337 1.27461 12.3346C1.5674 13.2651 1.95498 13.8911 2.59565 14.7599C3.00049 15.2078 3.73314 15.7886 4.55815 16.3556C4.86434 16.557 4.94216 16.5831 5.17957 16.6891" stroke="black" stroke-linecap="round"/>
<path d="M24.5176 8.77639C24.4916 8.61892 24.439 6.84088 24.5042 5.75759C24.5274 5.37327 24.7 4.95442 24.9617 4.46619C25.4635 3.53034 25.7738 3.10754 26.2973 2.56668C26.6954 2.15546 27.162 1.94591 27.7512 1.66896C28.3905 1.36843 28.9433 1.33819 29.5333 1.19378C30.0142 1.07607 30.3332 1.04858 31.2482 1.00862C32.0879 0.971945 33.3958 1.047 34.1697 1.33661C35.7796 1.93908 36.3327 2.26085 37.0272 2.69487C37.5014 2.99122 38.2445 3.60289 38.7315 4.22445C39.0202 4.59292 39.2428 4.94968 39.6736 5.7117C40.3431 6.896 40.7624 8.21774 40.9848 8.98213C41.1898 9.68626 41.3401 10.2514 41.4054 10.6344C41.4921 11.1436 41.4974 12.6142 41.3669 13.536C41.3127 13.9188 41.2096 14.2348 41.0265 14.5517C40.7999 14.9437 40.3984 15.3426 40.0183 15.6464C39.9259 15.7129 39.8481 15.7651 39.7691 15.8182C39.6901 15.8712 39.6123 15.9234 39.4535 16.0563" stroke="black" stroke-linecap="round"/>
<path d="M5.41538 16.8479C5.23301 16.8479 4.86668 16.9002 4.55185 17.0845C4.14896 17.3205 3.81803 17.7959 3.52992 18.1916C3.22866 18.6053 2.98004 19.0351 2.67818 19.4446C2.45755 19.7439 2.29928 20.2996 2.07524 20.8677C1.64918 21.9482 1.72071 22.6735 1.65546 23.3726C1.51925 24.8321 1.82447 25.4699 2.04733 25.9459C2.43106 26.7654 2.68918 27.3706 3.04254 27.8189C3.44053 28.3238 4.20793 28.6114 4.90167 28.914C5.42038 29.1404 6.32569 29.3489 7.64909 29.7311C8.20567 29.8918 9.11792 30.0848 10.4158 30.3099C11.7136 30.535 13.3739 30.77 15.4354 30.8911C17.497 31.0122 19.9095 31.0122 21.3339 30.9861C23.1229 30.9533 23.6514 30.8539 23.965 30.8409C24.2808 30.8277 24.5947 30.7748 25.5309 30.6703C26.3136 30.583 27.7124 30.357 28.5248 30.2232C29.5226 30.059 29.8616 29.9574 30.1752 29.8917C30.495 29.8247 31.4015 29.6155 33.2029 29.2349C34.2579 29.012 35.5749 28.6193 36.3213 28.4048C37.521 28.0602 38.037 27.8217 39.0043 27.3477C39.4922 27.1086 40.0007 26.7676 40.4606 26.4242C41.1836 25.8842 41.2868 25.3955 41.5096 24.9738C41.832 24.3636 41.8905 23.8129 42.021 23.2468C42.161 22.6391 42.1263 21.1605 41.9699 19.989C41.9165 19.5892 41.6043 19.0414 41.2757 18.5243C41.0619 18.1877 40.584 17.6693 40.0188 17.0477C39.7963 16.8495 39.6116 16.6905 39.4158 16.5195C39.2979 16.427 39.1423 16.3225 38.9033 16.0566" stroke="black" stroke-linecap="round"/>
<path d="M17.2068 18.5889C16.9207 18.5889 16.2918 18.6933 15.9502 18.7732C15.618 18.851 15.3218 19.0621 14.9157 19.3394C14.6677 19.5622 14.4563 19.7489 14.2994 19.8542C14.2204 19.9072 14.1426 19.9594 14.0624 20.0923" stroke="black" stroke-linecap="round"/>
<path d="M23.4957 18.4305C23.6521 18.4044 24.0177 18.2991 25.3509 18.2983C25.9318 18.4566 26.2455 18.5618 26.7297 18.8641C26.8743 18.9828 27.03 19.1395 27.1904 19.38" stroke="black" stroke-linecap="round"/>
<path d="M19.0936 20.2505H22.0021" stroke="black" stroke-linecap="round"/>
<path d="M19.3293 20.2505C19.3293 20.4863 19.3812 20.9611 19.4861 21.278C19.5911 21.5949 19.7475 21.9106 19.9574 22.2275C20.1673 22.5445 20.3505 22.7557 20.5203 22.8349C20.6072 22.8754 20.716 22.8618 20.7954 22.7834C21.1722 22.4116 21.1892 21.9929 21.3071 21.676C21.4777 21.3591 21.5823 21.0434 21.7525 20.7265C21.7922 20.6469 21.8181 20.5686 21.8448 20.4087" stroke="black" stroke-linecap="round"/>
</svg>
