<svg width="339" height="442" viewBox="0 0 339 442" fill="none" xmlns="http://www.w3.org/2000/svg">
<path d="M22.9409 22.6304C24.0373 24.172 28.0176 26.8299 32.6689 28.7137C38.2183 30.9612 44.6296 34.1392 52.4772 37.0164C58.8069 39.3371 68.2719 39.4551 77.2923 41.1196C80.492 41.71 83.8341 42.3389 101.622 43.6612C117.636 44.8517 147.917 45.8607 165.808 46.2095C183.699 46.5584 188.304 45.9005 192.43 45.5617C200.047 44.9361 205.434 45.0035 214.342 44.6713C221.491 44.4046 233.994 44.5583 241.419 44.6679C250.823 44.8068 258.115 46.0999 266.856 47.4289C274.489 48.5893 279.405 49.4223 287.917 51.9639C302.797 56.407 307.765 62.486 309.991 65.1473C312.355 67.9742 314.635 74.8587 315.865 80.9753C316.72 85.232 316.642 93.225 315.981 99.4744C315.59 103.167 311.353 113.585 308.785 119.635C307.562 122.514 304.482 126.489 301.811 129.712C298.86 133.272 294.076 135.579 288.87 138.789C279.784 144.39 270.647 146.862 263.058 149.321C259.443 150.492 253.556 151.088 248.659 151.65C243.999 152.184 239.589 153.082 234.818 153.643C229.831 154.23 222.777 155.075 214.119 155.637C208.766 155.984 204.81 156.63 182.065 157.517C175.788 157.762 173.127 158.185 168.393 158.514C159.459 159.134 152.09 160.178 148.445 160.288C139.684 160.551 131.278 161.281 126.288 161.617C119.741 162.057 113.563 162.61 107.573 162.946C103.103 163.196 96.9643 164.378 90.8477 164.939C86.2848 165.358 80.1263 166.371 74.4616 167.262C65.8942 168.608 62.6105 171.023 56.9624 173.568C51.9239 175.838 48.6564 178.545 44.9918 181.874C42.2578 184.357 37.812 192.671 34.2471 199.914C30.8492 206.818 31.8051 211.33 31.4696 216.859C31.3336 219.098 30.6954 221.297 30.3632 228.444C29.6138 244.564 30.6888 256.076 31.3533 257.844C32.8518 261.83 33.7853 267.359 35.0079 271.134C36.2455 274.954 39.9782 278.217 42.9751 280.443C45.9236 282.633 49.281 283.985 56.3511 286.42C62.3145 288.474 68.7636 288.423 75.1626 288.752C83.7994 289.196 91.7946 290.417 97.1038 290.526C103.79 290.665 111.496 291.52 126.909 292.184C138.147 292.669 156.356 292.41 166.389 292.52C180.201 292.671 184.61 293.513 192.68 293.958C202.822 294.518 209.408 295.507 215.398 295.842C217.852 295.98 225.103 296.397 236.16 296.726C249.396 297.12 257.224 299.706 262.696 300.494C265.547 300.904 268.122 302.59 272.437 305.358C275.738 307.474 283.803 314.724 289.163 321.073C295.136 328.15 296.694 334.246 298.585 337.695C300.806 341.746 302.462 346.885 302.798 350.649C303.523 358.785 302.914 372.135 301.256 376.005C298.522 382.389 297.598 386.966 296.601 390.079C295.587 393.246 290.103 396.933 284.983 400.379C282.304 402.181 279.006 403.591 275.899 404.704C269.33 407.058 260.4 410.462 256.855 412.12C250.474 415.104 245.782 415.339 240.469 416.443C236.098 417.35 232.492 417.333 228.392 417.884C226.525 418.136 224.512 418.217 207.939 418.549C192.466 418.859 162.642 418.662 146.292 418.772C129.943 418.881 127.969 419.1 122.019 419.213C106.203 419.514 94.499 419.107 90.4191 418.775C79.6849 417.901 68.6573 417.997 61.4942 417.446C59.7267 417.333 57.9459 417.114 55.5205 416.781C53.9722 416.668 51.7795 416.668 49.5202 416.668" stroke="#B29375" stroke-width="45" stroke-linecap="round"/>
</svg>
